<svg xmlns="http://www.w3.org/2000/svg" xml:space="preserve" width="2000" height="400" data-id="lg_f7LJKr2i3z8HeNqncU" data-version="1" viewBox="0 0 2000 400"><g data-padding="20"><g transform="translate(57.143 16.31)scale(.91837)"><path fill="#ff851b" d="m1117.737 15.735-12.75-12.682a6.198 6.198 0 0 0-8.764 8.765l3.253 3.253a86.3 86.3 0 0 1-13.28 19.323l-.465.465a79.7 79.7 0 0 1-29.481 19.588 79.7 79.7 0 0 1-29.017 5.378c-31.052.09-59.423-17.577-73.04-45.484l2.523-2.523a6.175 6.175 0 1 0-8.565-8.765L935.4 15.735a6.198 6.198 0 0 0 8.766 8.765l.996-.996c21.562 39.363 68.025 57.887 110.755 44.156l8.698 12.882a25.23 25.23 0 0 0 16.202 10.757 26.6 26.6 0 0 0 5.046.464 26.56 26.56 0 0 0 13.745-4.183c11.643-7.817 14.788-23.57 7.038-35.258l-8.698-13.28a93 93 0 0 0 10.425-15.14 6.198 6.198 0 1 0 8.765-8.764Z"/><rect width="560" height="231.876" x="346.167" y="-315.255" fill="none" rx="0" ry="0" transform="translate(400.5 482.69)"/><path d="M918.317 180.623q7.03 0 11.83.72 4.8.71 7.74 1.75 3.14 1.24 4.32 2.85 1.19 1.62 1.19 3.71 0 3.04-2.33 4.94-2.32 1.9-7.07 1.9-3.23 0-6.94-.67-3.7-.66-7.6-1.99l1.24-1.33q.85 4.94 1.52 10.92.66 5.99 1.18 12.12.53 6.12.76 11.54.24 5.41.24 9.21 0 7.41-1.85 11.12-1.85 3.7-6.32 3.7-4.08 0-5.89-3.37-1.8-3.37-1.8-10.31 0-4.56.42-10.45.43-5.89 1.19-12.16t1.66-12.01q.91-5.75 1.86-10.03l1.71 1.05q-2.09.76-4.94 1.47t-5.7 1.14-5.04.43q-4.84 0-6.84-1.57-1.99-1.57-1.99-4.23 0-2.47 1.52-4.22 1.52-1.76 4.65-3.09 3.61-1.52 8.88-2.33 5.28-.81 12.4-.81m74.48 70.78q-3.23 0-4.42-2.52-1.18-2.52-1.37-8.03l.95.48q-5.32 10.35-20.14 10.35-6.75 0-11.21-2.42-4.47-2.42-6.61-6.46-2.13-4.04-2.13-8.79 0-8.17 5.7-12.96 5.7-4.8 15.1-4.8 6.18 0 10.74 1.8 4.56 1.81 7.79 5.04l-1.62-.19q-.66-9.6-4.13-13.73t-9.83-4.13q-3.71 0-6.84 1.14-3.14 1.14-5.75 2.33-2.61 1.18-4.89 1.18t-3.57-1.52q-1.28-1.52-1.28-3.89 0-3.42 3.28-6.46t8.69-4.94q5.42-1.9 11.78-1.9 7.7 0 13.21 3.7 5.51 3.71 8.36 10.83 2.47 6.08 3.51 13.59 1.05 7.5 1.05 16.05 0 6.46-.67 9.98-.66 3.51-2.04 4.89t-3.66 1.38m-20.99-10.64q3.13 0 6.36-.9 3.23-.91 5.42-2.71 2.18-1.81 2.18-4.47 0-2.28-1.85-3.75t-4.85-2.23q-2.99-.76-6.41-.76-5.79 0-8.79 1.99-2.99 2-2.99 5.32 0 3.61 2.8 5.56 2.81 1.95 8.13 1.95m62.99-49.78q8.46 0 12.16 2.47 3.71 2.47 3.71 6.36 0 2.28-1.57 3.76-1.57 1.47-4.42 1.47-2.94 0-6.13-.86-3.18-.85-7.36-.85-4.84 0-7.22 1.9-2.37 1.9-2.37 4.84 0 2.76 2.13 4.33 2.14 1.56 8.22 2.32 6.75.76 11.16 2.43 4.42 1.66 6.61 4.94 2.18 3.27 2.18 8.97 0 9.03-6.36 13.4-6.37 4.37-17.58 4.37-7.12 0-11.3-1.14t-6.04-3.23q-1.85-2.09-1.85-4.94 0-2.47 1.66-3.85 1.67-1.38 3.95-1.38 2.18 0 4.65.53 2.47.52 5.23 1.09 2.75.57 5.7.57 9.5 0 9.5-5.89 0-2-.95-3.23-.95-1.24-3.42-2.04-2.47-.81-7.22-1.29-5.7-.57-9.88-1.94-4.18-1.38-6.46-4.56-2.28-3.19-2.28-8.79 0-8.84 6.65-14.3t18.9-5.46m42.74 2.28h-1.9q-.28-4.18.19-7.93.48-3.76 2.04-6.08 1.57-2.33 4.52-2.33 2.66 0 3.89 1.71 1.24 1.71 1.24 4.75 0 5.98-2.28 10.26l-1.71-.19q5.13-1.81 11.59-1.81 4.08 0 6.5 1.57 2.43 1.57 2.43 5.27 0 3.52-2.85 5.32-2.85 1.81-7.13 1.81-2.56 0-5.46-.24t-5.65-.81l1.61-1.99q.86 3.61 1.66 8.22.81 4.6 1.48 9.54.66 4.94 1.04 9.6.38 4.65.38 8.36 0 6.08-1.9 9.59-1.9 3.52-5.6 3.52-2.95 0-4.61-1.81-1.66-1.8-2.38-4.6-.71-2.81-.85-5.85t-.14-5.51q0-4.18.38-9.45t1.09-10.88q.71-5.6 1.66-10.83l1.9 1.62q-4.84 2.47-11.97 2.47-4.37 0-6.74-1.62-2.38-1.61-2.38-5.03 0-3.71 2.66-5.75t7.13-2.04q2.94 0 5.55.33 2.62.33 4.61.81m43.61 76.09q-5.13 0-5.13-5.51 0-3.04 2.09-7.22t6.12-9.02q4.04-4.85 9.84-9.88l-.1.76q-12.63-12.54-19.14-22.04t-6.51-16.44q0-3.42 1.76-5.32t4.7-1.9q6.27 0 12.45 9.12 6.17 9.12 11.68 27.74h.38q3.61-19.57 7.7-28.73 4.08-9.17 9.69-9.17 2.66 0 3.94 1.85t1.28 5.18q0 2.75-1.19 7.27-1.18 4.51-3.32 10.16t-4.94 11.73-6.13 11.97q-8.45 15.3-14.44 22.38-5.98 7.07-10.73 7.07m-340.39 37.32q11.31 0 16.67 5.79 5.37 5.8 5.37 15.2 0 6.46-2.99 11.21t-8.12 7.37q-5.13 2.61-11.59 2.61-3.04 0-6.42-.67-3.37-.66-6.98-2.56l.48-1.24q.76 2.38 1.28 5.85.52 3.46.85 7.12.34 3.66.34 6.7 0 5.6-1.86 8.6-1.85 2.99-5.46 2.99-3.04 0-4.8-1.9-1.75-1.9-2.42-6.27-.66-4.37-.66-11.69 0-14.06 1.28-23.98 1.28-9.93 4.42-15.63 2.47-4.37 7.64-6.94 5.18-2.56 12.97-2.56m-1.8 30.97q5.7 0 9.26-3.04t3.56-8.84q0-3.8-2.52-6.31-2.51-2.52-7.83-2.52-3.9 0-6.75 1.76-2.85 1.75-4.32 4.84t-1.47 7.08q0 3.7 2.42 5.37 2.42 1.66 7.65 1.66m32.01-5.51q0-9.12 1.71-13.16t4.85-4.04q2.47 0 3.89 2.05 1.43 2.04 2.09 5.03.67 2.99.67 6.03l-.48-.19q1.62-5.13 4.99-8.83 3.37-3.71 8.12-3.71 5.61 0 8.27 4.61t2.66 11.45q0 9.12-2.09 12.73t-5.61 3.61q-2.56 0-3.75-2.09t-.81-7.41q.38-5.61-.66-7.79-1.05-2.19-3.33-2.19-2.75 0-4.51 3.47t-1.76 8.5q0 2 .48 5.04.47 3.04 1.04 6.6t1.05 7.08q.47 3.51.47 6.46 0 5.22-1.61 7.5-1.62 2.28-4.56 2.28-3.33 0-5.13-2.13-1.81-2.14-2.76-6.99-.76-4.37-1.52-10.35-.76-5.99-1.23-12.26-.48-6.27-.48-11.3m68.31 43.13q-7.6 0-13.26-3.37-5.65-3.38-8.74-9.65-3.08-6.27-3.08-14.91 0-9.03 3.13-15.77 3.14-6.75 8.88-10.55 5.75-3.8 13.35-3.8 8.17 0 14.16 3.66 5.98 3.66 9.31 10.21 3.32 6.56 3.32 15.3 0 8.93-3.32 15.39-3.33 6.46-9.41 9.97-6.08 3.52-14.34 3.52m1.33-12.83q5.89 0 9.35-4.7 3.47-4.7 3.47-12.49 0-7.89-3.47-12.54-3.46-4.66-9.35-4.66-6.08 0-9.6 4.66-3.51 4.65-3.51 12.54 0 7.79 3.51 12.49 3.52 4.7 9.6 4.7m77.61-29.82-1.33-1.14q.95-3.89 3.37-7.03 2.43-3.13 5.89-4.98 3.47-1.86 7.65-1.86 4.94 0 8.74 2.38 3.8 2.37 6.03 7.79 2.24 5.41 2.24 14.44 0 4.65-.38 9.4t-.95 8.84q-.57 4.08-1.24 6.84-.95 3.8-2.9 5.79-1.94 2-4.89 2-2.47 0-3.89-2.19-1.43-2.18-1.43-6.27 0-1.9.48-4.89.47-2.99 1.04-6.55.57-3.57 1.05-7.27.47-3.71.47-7.03 0-4.94-1.99-7.65-2-2.71-5.61-2.71-3.99 0-6.6 4.14-2.61 4.13-3.09 12.01-.38 7.03-.66 12.5-.29 5.46-1.43 8.97-.76 2.47-2.14 3.71-1.37 1.23-3.65 1.23-2.57 0-4.04-1.9t-1.66-5.98q-.19-3.42-.1-8.08.1-4.65.14-9.26.05-4.61-.14-7.65-.38-6.08-2.14-8.93-1.75-2.85-5.27-2.85-4.08 0-6.51 3.8-2.42 3.8-2.99 10.55-.19 2.75-.14 6.79t.14 8.03q.1 3.99-.09 6.65-.1 5.7-1.76 8.17t-4.61 2.47q-3.51 0-5.08-2.28t-2.04-7.32q-.38-4.46-.57-8.88t-.19-8.79q0-4.46.23-9.69.24-5.22.72-9.88.57-4.75 1.99-7.98 1.43-3.23 4.75-3.23 2.76 0 3.9 2.71t1.14 8.31q0 1.9-.29 3.52l-.28-1.9q1.9-6.18 6.08-9.64 4.18-3.47 9.31-3.47 6.74 0 10.54 4.32t4.18 11.92m67.26 42.65q-7.6 0-13.25-3.37-5.65-3.38-8.74-9.65t-3.09-14.91q0-9.03 3.14-15.77 3.13-6.75 8.88-10.55t13.35-3.8q8.17 0 14.15 3.66 5.99 3.66 9.31 10.21 3.33 6.56 3.33 15.3 0 8.93-3.33 15.39-3.32 6.46-9.4 9.97-6.08 3.52-14.35 3.52m1.33-12.83q5.89 0 9.36-4.7t3.47-12.49q0-7.89-3.47-12.54-3.47-4.66-9.36-4.66-6.08 0-9.59 4.66-3.52 4.65-3.52 12.54 0 7.79 3.52 12.49 3.51 4.7 9.59 4.7m51.4-44.65h-1.9q-.29-4.18.19-7.93.47-3.75 2.04-6.08t4.51-2.33q2.66 0 3.9 1.71 1.23 1.71 1.23 4.75 0 5.99-2.28 10.26l-1.71-.19q5.13-1.8 11.59-1.8 4.09 0 6.51 1.57 2.42 1.56 2.42 5.27 0 3.51-2.85 5.32-2.85 1.8-7.12 1.8-2.57 0-5.47-.23-2.89-.24-5.65-.81l1.62-2q.85 3.61 1.66 8.22t1.47 9.55q.67 4.94 1.05 9.59.38 4.66.38 8.36 0 6.08-1.9 9.6-1.9 3.51-5.61 3.51-2.94 0-4.61-1.8-1.66-1.81-2.37-4.61t-.86-5.84q-.14-3.04-.14-5.51 0-4.18.38-9.45.38-5.28 1.09-10.88.72-5.61 1.67-10.83l1.9 1.61q-4.85 2.47-11.97 2.47-4.37 0-6.75-1.61-2.37-1.62-2.37-5.04 0-3.7 2.66-5.74 2.66-2.05 7.12-2.05 2.95 0 5.56.34 2.61.33 4.61.8m42.56-15.67q3.8 0 5.46 2.09t1.66 4.84q0 3.42-2.04 5.28-2.04 1.85-5.75 1.85-3.61 0-5.41-2.04-1.81-2.05-1.81-4.8 0-3.61 2.19-5.42 2.18-1.8 5.7-1.8m.57 21.18q3.04 0 4.79 5.7 1.76 5.7 1.76 18.15 0 15.29-2.18 22.04-2.19 6.74-6.65 6.74-3.42 0-5.04-4.98-1.61-4.99-1.61-17.44 0-15.29 2.51-22.75 2.52-7.46 6.42-7.46m41.24 51.97q-7.6 0-13.26-3.37-5.65-3.38-8.74-9.65-3.08-6.27-3.08-14.91 0-9.03 3.13-15.77 3.14-6.75 8.88-10.55 5.75-3.8 13.35-3.8 8.17 0 14.16 3.66 5.98 3.66 9.31 10.21 3.32 6.56 3.32 15.3 0 8.93-3.32 15.39-3.33 6.46-9.41 9.97-6.08 3.52-14.34 3.52m1.33-12.83q5.89 0 9.35-4.7 3.47-4.7 3.47-12.49 0-7.89-3.47-12.54-3.46-4.66-9.35-4.66-6.08 0-9.6 4.66-3.51 4.65-3.51 12.54 0 7.79 3.51 12.49 3.52 4.7 9.6 4.7m45.02-46.55q3.04 0 4.13 2.47t1.09 7.32q0 1.14-.14 2.42t-.43 2.33l-.19-1.9q2.28-6.18 7.03-9.64 4.75-3.47 10.07-3.47 5.89 0 9.83 3.32 3.95 3.33 5.89 9.31 1.95 5.99 1.95 14.16 0 5.03-.43 9.93-.42 4.89-1.14 8.93-.71 4.03-1.56 6.6-1.14 3.23-2.95 4.8-1.8 1.56-4.27 1.56t-3.8-1.8q-1.33-1.81-1.33-4.85 0-3.23.47-7.83.48-4.61.9-9.41.43-4.8.43-8.69 0-13.3-8.74-13.3-4.65 0-7.79 4.13-3.13 4.13-4.18 11.73-.28 2.57-.28 6.37t.04 7.55q.05 3.75-.23 6.32-.38 5.7-2.14 8.17t-4.8 2.47q-3.51 0-5.32-3.28-1.8-3.28-1.8-11.07 0-3.99.19-8.93t.52-9.92q.33-4.99.81-9.08.95-7.69 2.75-12.2 1.81-4.52 5.42-4.52m74.87-.38q8.45 0 12.16 2.47 3.7 2.47 3.7 6.37 0 2.28-1.57 3.75-1.56 1.47-4.41 1.47-2.95 0-6.13-.85-3.18-.86-7.36-.86-4.85 0-7.22 1.9-2.38 1.9-2.38 4.85 0 2.75 2.14 4.32t8.22 2.33q6.74.76 11.16 2.42t6.6 4.94q2.19 3.28 2.19 8.98 0 9.02-6.37 13.39-6.36 4.37-17.57 4.37-7.13 0-11.31-1.14t-6.03-3.23-1.85-4.94q0-2.47 1.66-3.84 1.66-1.38 3.94-1.38 2.19 0 4.66.52t5.22 1.09q2.76.57 5.7.57 9.5 0 9.5-5.89 0-1.99-.95-3.23-.95-1.23-3.42-2.04t-7.22-1.28q-5.7-.57-9.88-1.95t-6.46-4.56-2.28-8.79q0-8.83 6.65-14.29 6.65-5.47 18.91-5.47"/></g><path fill="transparent" stroke="transparent" stroke-width=".952" d="M733.333 10h533.334v380H733.333z"/></g></svg>